<?xml version="1.0" encoding="utf-8"?>
<!-- Generator: Adobe Illustrator 22.0.0, SVG Export Plug-In . SVG Version: 6.00 Build 0)  -->
<svg version="1.1" id="Layer_1" xmlns="http://www.w3.org/2000/svg" xmlns:xlink="http://www.w3.org/1999/xlink" x="0px" y="0px"
	 viewBox="0 0 500 153.2" style="enable-background:new 0 0 500 153.2;" xml:space="preserve">
<style type="text/css">
	.st0{fill:url(#SVGID_1_);}
	.st1{fill:url(#SVGID_2_);}
	.st2{fill:#273D98;}
</style>
<g>
	<g>
		<linearGradient id="SVGID_1_" gradientUnits="userSpaceOnUse" x1="45.3176" y1="150.7942" x2="165.3076" y2="30.8042">
			<stop  offset="0" style="stop-color:#6A2B8F"/>
			<stop  offset="0.2474" style="stop-color:#5E2E91"/>
			<stop  offset="0.692" style="stop-color:#3F3695"/>
			<stop  offset="1" style="stop-color:#253D98"/>
		</linearGradient>
		<path class="st0" d="M150.2,39c-2.5,0-5,0.2-7.5,0.6c-8.1-18-26.2-30.7-47.3-30.7C74.1,8.9,55.6,22,47.7,40.6
			c-22.5,5.6-39.3,26-39.3,50.3c0,28.6,23.3,51.9,51.9,51.9h90c28.6,0,51.9-23.3,51.9-51.9C202.1,62.2,178.8,39,150.2,39z
			 M98.9,90.9c0,2.7-0.3,5.3-0.9,8c0,0.2-0.2,0.4-0.5,0.4l-0.5,0c-0.5,0-1.1,0.1-1.6,0.1c-8.4,0-16.4-2.7-23.1-7.7
			c-1.1-0.8-2.1-1.7-3.1-2.6l-8.8,9.2c1.3,1.3,2.8,2.4,4.2,3.5c7.8,5.9,17.2,9.4,26.9,10.1c0.2,0,0.3,0.1,0.4,0.3
			c0.1,0.2,0.1,0.4,0,0.5c-7.2,10.4-19.1,16.7-31.7,16.7c-21.3,0-38.6-17.3-38.6-38.6c0-14.7,8.6-28.4,22-34.8
			c2.3-1.1,4.8-2,7.3-2.6c2.3-0.6,4.8-0.9,7.2-1.1l0.6,0c0.5,0,1-0.1,1.4-0.1c21.2,0,38.6,17.3,38.6,38.5V90.9z M112.4,95.4
			c-0.1,0-0.2,0-0.2-0.1c-0.1-0.1-0.2-0.2-0.3-0.4c-0.1-1.4-0.2-2.7-0.2-4l0.3,0c0,0,0-0.1,0-0.1l-0.3-0.1c0-5.9-1.1-11.8-3.2-17.5
			c-1-2.8-2.2-5.4-3.6-7.8c-8.5-14.8-23.7-24.4-40.7-25.7c-0.2,0-0.3-0.1-0.4-0.3s-0.1-0.4,0-0.5C71,28.4,82.8,22.1,95.5,22.1
			c14.5,0,27.7,8,34.3,21c1.1,2.1,2,4.3,2.6,6.5c0.7,2.3,1.2,4.7,1.4,7.1c0.1,1.4,0.2,2.8,0.2,4.1c0,14.7-8.2,28-21.5,34.6
			C112.5,95.4,112.4,95.4,112.4,95.4z M150.2,129.4c-14.5,0-27.7-8-34.3-21c-0.1-0.1-0.1-0.3,0-0.4c0-0.1,0.1-0.2,0.3-0.3
			c0.9-0.4,1.9-0.9,3.1-1.5l0.2-0.1l0.2-0.1c1-0.5,2-1.1,3-1.8l0.1-0.1c2-1.3,3.7-2.5,5.2-3.7c0-0.1,0.1-0.2,0.2-0.2
			c11.9-9.8,18.7-24.2,18.7-39.6c0-2.4-0.2-4.9-0.7-7.8c0-0.1,0-0.3,0.1-0.4c0.1-0.1,0.2-0.2,0.4-0.2c1.3-0.1,2.5-0.2,3.6-0.2
			c21.3,0,38.6,17.3,38.6,38.6C188.9,112.1,171.5,129.4,150.2,129.4z"/>
		<linearGradient id="SVGID_2_" gradientUnits="userSpaceOnUse" x1="118.3147" y1="108.0325" x2="121.331" y2="105.0162">
			<stop  offset="0" style="stop-color:#6A2B8F"/>
			<stop  offset="0.2474" style="stop-color:#5E2E91"/>
			<stop  offset="0.692" style="stop-color:#3F3695"/>
			<stop  offset="1" style="stop-color:#253D98"/>
		</linearGradient>
		<polygon class="st1" points="119.8,106.5 119.8,106.5 119.8,106.5 119.8,106.5 		"/>
	</g>
	<g>
		<path class="st2" d="M293.2,71.3C293.2,71.3,293.2,71.3,293.2,71.3c1.1-0.3,2-0.6,2.8-1.1c0.8-0.4,1.5-0.9,2.2-1.5
			c0.4-0.4,0.8-0.8,1.2-1.1v3c0,0.1,0.1,0.3,0.3,0.3h5c0.1,0,0.3-0.1,0.3-0.3v-30c0-0.1-0.1-0.3-0.3-0.3h-5c-0.1,0-0.3,0.1-0.3,0.3
			v22.1c-1.2,1.4-2.4,2.5-3.6,3.2c-1.3,0.7-2.8,1.1-4.7,1.1c-1.7,0-3.3-0.6-4.5-1.7c-1.3-1.1-1.9-2.9-1.9-5.2V44.8
			c0-1.3,0-2.7-0.1-4.2c0-0.1-0.1-0.3-0.3-0.3h-5c-0.1,0-0.1,0-0.2,0.1c0,0-0.1,0.1-0.1,0.2c0,2.8,0.1,5.1,0.1,7v12.5
			c0,3.7,1,6.5,2.9,8.5c1.9,2,4.5,3,7.6,3C290.9,71.7,292.1,71.5,293.2,71.3z"/>
		<path class="st2" d="M317.9,40.4h-5c-0.1,0-0.1,0-0.2,0.1c0,0-0.1,0.1-0.1,0.2l0.1,30c0,0.1,0.1,0.3,0.3,0.3h4.9
			c0.1,0,0.3-0.1,0.3-0.3l0.1-30c0-0.1,0-0.1-0.1-0.2C318.1,40.4,318,40.4,317.9,40.4z"/>
		<path class="st2" d="M315.4,28.6c-1,0-1.8,0.3-2.5,1c-0.7,0.7-1,1.5-1,2.5c0,1,0.3,1.8,1,2.5c0.7,0.7,1.6,1,2.6,1
			c1,0,1.9-0.3,2.5-1c0.7-0.7,1-1.5,1-2.5c0-1-0.3-1.8-1-2.5C317.3,28.9,316.4,28.6,315.4,28.6z"/>
		<path class="st2" d="M333,47.5c0.8-1,1.9-1.8,3.1-2.4c1.2-0.6,2.6-0.9,4-0.9c1.6,0,3,0.3,4.3,0.9c1.3,0.6,2.6,1.7,4,3.2
			c0,0.1,0.1,0.1,0.2,0.1c0.1,0,0.1,0,0.2-0.1l3.3-3.2c0,0,0.1-0.1,0.1-0.2c0-0.1,0-0.1-0.1-0.2c-1.1-1.1-2.2-2-3.2-2.7
			c-1-0.7-2-1.2-3-1.6c-1-0.4-2-0.6-2.9-0.7c-1-0.1-1.9-0.2-2.8-0.2c-2.2,0-4.3,0.4-6.2,1.3c-1.9,0.8-3.5,2-4.9,3.5
			c-1.4,1.5-2.4,3.2-3.2,5.1c-0.8,1.9-1.2,4-1.2,6.2c0,2.2,0.4,4.3,1.2,6.3c0.8,1.9,1.9,3.7,3.2,5.1c1.4,1.4,3,2.6,4.9,3.4
			c1.9,0.8,4,1.3,6.2,1.3c0.9,0,1.9-0.1,2.8-0.2c1-0.1,1.9-0.4,2.9-0.7c1-0.4,2-0.9,3-1.6c1-0.7,2.1-1.6,3.2-2.7
			c0.1-0.1,0.1-0.3,0-0.4l-3.3-3.3c-0.1,0-0.1-0.1-0.2-0.1c0,0,0,0,0,0c-0.1,0-0.1,0-0.2,0.1c-1.4,1.5-2.7,2.6-4,3.3
			c-1.3,0.6-2.7,1-4.3,1c-1.5,0-2.8-0.3-4-0.9c-1.2-0.6-2.2-1.4-3.1-2.4c-0.8-1-1.5-2.3-2-3.6c-0.5-1.4-0.7-2.9-0.7-4.5
			c0-1.6,0.2-3.1,0.7-4.5C331.5,49.8,332.1,48.6,333,47.5z"/>
		<path class="st2" d="M384.9,40.5c0-0.1-0.1-0.2-0.2-0.2h-7.5c-0.1,0-0.1,0-0.2,0.1L362.7,55l0.1-25.8c0-0.1,0-0.1-0.1-0.2
			c0,0-0.1-0.1-0.2-0.1h-5c-0.1,0-0.1,0-0.2,0.1c0,0-0.1,0.1-0.1,0.2l0.1,41.4c0,0.1,0.1,0.3,0.3,0.3h5c0.1,0,0.1,0,0.2-0.1
			c0,0,0.1-0.1,0.1-0.2l-0.1-8.9l4.3-4l10.4,13.1c0,0.1,0.1,0.1,0.2,0.1h7.1c0.1,0,0.2-0.1,0.2-0.2c0-0.1,0-0.2,0-0.3l-14.2-16.3
			l14.2-13.4C384.9,40.7,385,40.6,384.9,40.5z"/>
		<path class="st2" d="M438.2,50c0-2.9-0.5-5.6-1.6-8.2c-1.1-2.5-2.6-4.8-4.4-6.7c-1.9-1.9-4.1-3.4-6.7-4.5
			c-2.6-1.1-5.4-1.7-8.5-1.7h-15c-0.1,0-0.3,0.1-0.3,0.3v41.4c0,0.1,0.1,0.3,0.3,0.3h15c3,0,5.9-0.5,8.5-1.6
			c2.6-1.1,4.9-2.6,6.7-4.5c1.9-1.9,3.4-4.1,4.4-6.7S438.2,52.8,438.2,50z M416.9,65.6h-9.3V34.2h9.3c2.2,0,4.2,0.4,6.1,1.2
			c1.8,0.8,3.5,1.9,4.8,3.4c1.3,1.4,2.4,3.1,3.1,5c0.8,1.9,1.1,4,1.1,6.2c0,2.2-0.4,4.2-1.1,6.1c-0.8,1.9-1.8,3.6-3.1,5
			c-1.3,1.4-2.9,2.5-4.8,3.3C421.1,65.2,419.1,65.6,416.9,65.6z"/>
		<path class="st2" d="M443.3,70.9h5c0.1,0,0.1,0,0.2-0.1c0,0,0.1-0.1,0.1-0.2l-0.1-21.3c0.6-0.7,1.3-1.3,2-1.7
			c0.8-0.5,1.7-0.8,2.5-1.1c0.9-0.2,1.8-0.4,2.7-0.4c0.9,0,1.8,0,2.6,0.1c0.1,0,0.2,0,0.2-0.1c0.1,0,0.1-0.1,0.1-0.2v-5.4
			c0-0.1-0.1-0.3-0.3-0.3c-1.3,0-2.6,0.1-3.6,0.4c-1.1,0.3-2,0.6-2.9,1.1s-1.6,1-2.2,1.5c-0.4,0.4-0.8,0.8-1.2,1.2l0.1-3.9
			c0-0.1,0-0.1-0.1-0.2c0,0-0.1-0.1-0.2-0.1h-5c-0.1,0-0.1,0-0.2,0.1c0,0-0.1,0.1-0.1,0.2l0.1,30C443.1,70.8,443.2,70.9,443.3,70.9z
			"/>
		<path class="st2" d="M491.4,40.5c0-0.1-0.1-0.1-0.2-0.1h-5.6c-0.1,0-0.2,0.1-0.2,0.2l-9.6,24.6l-9.6-24.6c0-0.1-0.1-0.2-0.2-0.2
			h-5.6c-0.1,0-0.2,0-0.2,0.1c0,0.1-0.1,0.2,0,0.2l13,30.2c-0.2,0.4-0.3,0.9-0.5,1.4c-0.8,2.3-1.6,4.8-3.8,5.9
			c-0.7,0.3-1.4,0.6-2.3,0.7c-0.2,0-1.9,0.2-2.3,0.2c0,0,0,0,0,0c0,0-0.1,0-0.1,0h0c-0.1,0-0.3,0.1-0.3,0.3c0,0,0,0,0,0l0.1,4.1
			c0,0.1,0.1,0.3,0.3,0.3c3.1,0,5.6-0.5,7.5-1.6c1.9-1.1,3.5-3,4.7-5.7l15.1-35.7C491.5,40.6,491.5,40.6,491.4,40.5z"/>
		<path class="st2" d="M264.2,118.9c-0.1,0-0.1-0.1-0.2-0.1c-0.1,0-0.1,0-0.2,0.1c-1.4,1.8-3.1,3.3-5.1,4.5c-2,1.1-4.2,1.7-6.6,1.7
			c-2.3,0-4.4-0.4-6.4-1.2c-1.9-0.8-3.6-2-5.1-3.5c-1.4-1.5-2.6-3.3-3.4-5.4c-0.8-2.1-1.3-4.4-1.3-6.9s0.4-4.8,1.3-6.9
			c0.8-2.1,2-3.9,3.4-5.4c1.4-1.5,3.1-2.7,5.1-3.5c1.9-0.8,4.1-1.2,6.4-1.2c2.4,0,4.7,0.6,6.6,1.7c2,1.1,3.6,2.6,5,4.4
			c0,0.1,0.1,0.1,0.2,0.1c0.1,0,0.1,0,0.2-0.1l4-3.8c0.1-0.1,0.1-0.3,0-0.4c-2-2.2-4.3-4-6.9-5.3c-2.6-1.3-5.7-1.9-9.1-1.9
			c-3.1,0-6,0.6-8.7,1.7c-2.7,1.1-5,2.7-7,4.6c-2,2-3.6,4.3-4.7,7c-1.1,2.7-1.7,5.7-1.7,8.9c0,3.2,0.6,6.2,1.7,8.9
			c1.1,2.7,2.7,5,4.7,7c2,2,4.4,3.5,7,4.6c2.7,1.1,5.6,1.7,8.7,1.7c3.4,0,6.4-0.7,9.1-2c2.7-1.3,5-3.1,7-5.4c0.1-0.1,0.1-0.3,0-0.4
			L264.2,118.9z"/>
		<path class="st2" d="M278.4,87.1h-5c-0.1,0-0.1,0-0.2,0.1c0,0-0.1,0.1-0.1,0.2l0.1,41.4c0,0.1,0.1,0.3,0.3,0.3h5
			c0.1,0,0.1,0,0.2-0.1c0,0,0.1-0.1,0.1-0.2l-0.1-41.4C278.7,87.2,278.6,87.1,278.4,87.1z"/>
		<path class="st2" d="M311.8,102.4c-1.4-1.4-3-2.6-4.9-3.4c-1.9-0.8-4-1.3-6.3-1.3c-2.2,0-4.3,0.4-6.2,1.3c-1.9,0.8-3.5,2-4.9,3.5
			c-1.4,1.5-2.4,3.2-3.2,5.1c-0.8,1.9-1.2,4-1.2,6.2c0,2.2,0.4,4.3,1.2,6.3c0.8,1.9,2,3.7,3.4,5.1c1.4,1.4,3.1,2.6,5,3.4
			c1.9,0.8,4,1.3,6.2,1.3c0.9,0,1.9-0.1,3-0.2c1.1-0.1,2.2-0.4,3.3-0.7c1.1-0.4,2.3-0.9,3.4-1.6c1.2-0.7,2.3-1.6,3.4-2.7
			c0,0,0.1-0.1,0.1-0.2c0-0.1,0-0.1-0.1-0.2L311,121c0,0-0.1-0.1-0.2-0.1c-0.1,0-0.1,0-0.2,0.1c-1.4,1.5-3,2.6-4.6,3.1
			c-1.7,0.5-3.3,0.8-4.9,0.8c-2.7,0-4.9-0.8-6.7-2.5c-1.7-1.6-2.8-3.7-3.3-6.4h24.7c0.1,0,0.3-0.1,0.3-0.3v-1.9
			c0-2.2-0.4-4.3-1.1-6.2C314.3,105.6,313.2,103.9,311.8,102.4z M300.7,102.3c1.4,0,2.7,0.3,3.8,0.8c1.1,0.5,2.1,1.2,3,2.1
			c0.8,0.9,1.5,1.9,2,3c0.5,1,0.8,2.1,0.9,3.2l-19.3,0.1c0.2-1.2,0.5-2.3,1-3.4c0.5-1.1,1.2-2.1,2-3c0.8-0.8,1.8-1.5,2.9-2
			C298.1,102.6,299.3,102.3,300.7,102.3z"/>
		<path class="st2" d="M344.3,100.6c-1.1-0.9-2.3-1.7-3.8-2.2c-2.2-0.8-5-0.9-8.1-0.6c-1,0.1-2.1,0.4-3.2,0.7
			c-1.1,0.4-2.2,0.9-3.3,1.6c-1.1,0.7-2.2,1.6-3.4,2.7c-0.1,0.1-0.1,0.3,0,0.4l3.2,3.3c0,0,0.1,0.1,0.2,0.1c0.1,0,0.1,0,0.2-0.1
			c1.4-1.5,2.9-2.6,4.5-3.3c1.6-0.6,3.1-0.9,4.7-0.9c0.9,0,1.7,0.2,2.5,0.4c0.8,0.3,1.5,0.7,2.2,1.2c0.6,0.5,1.1,1.1,1.5,1.8
			c0.4,0.7,0.5,1.4,0.5,2.3v4.2c-0.8-1.1-1.9-2-3.3-2.6c-1.6-0.7-3.3-1.1-5-1.1c-1.4,0-2.8,0.2-4.3,0.5c-1.5,0.4-2.9,1-4.1,1.8
			c-1.2,0.8-2.2,1.9-3,3.3c-0.8,1.4-1.2,3.1-1.2,5.1c0,1.9,0.4,3.5,1.2,4.8c0.8,1.4,1.8,2.5,3,3.3c1.2,0.9,2.6,1.5,4.1,1.9
			c1.5,0.4,2.9,0.6,4.3,0.6c1.7,0,3.4-0.4,5-1.1c1.4-0.6,2.4-1.5,3.3-2.6v2.6c0,0.1,0.1,0.3,0.3,0.3h5c0.1,0,0.3-0.1,0.3-0.3V108
			c0-1.4-0.3-2.8-0.8-4.1C346.2,102.6,345.4,101.5,344.3,100.6z M342.1,116.7v4.8c-0.7,1.2-1.7,2.1-3.1,2.8c-1.4,0.6-2.9,1-4.3,1
			c-0.7,0-1.6-0.1-2.5-0.3c-0.9-0.2-1.8-0.5-2.5-1c-0.8-0.5-1.4-1.1-2-1.9c-0.5-0.8-0.8-1.7-0.8-2.9c0-1.2,0.3-2.2,0.8-2.9
			c0.5-0.8,1.2-1.4,2-1.8c0.8-0.5,1.6-0.8,2.5-1c0.9-0.2,1.7-0.3,2.5-0.3c1.4,0,2.9,0.3,4.3,0.9
			C340.4,114.6,341.4,115.6,342.1,116.7z"/>
		<path class="st2" d="M370.7,97.7c-1.3,0-2.5,0.1-3.6,0.4c-1,0.3-2,0.6-2.8,1.1c-0.8,0.4-1.6,0.9-2.2,1.5c-0.4,0.4-0.8,0.8-1.2,1.1
			v-3c0-0.1-0.1-0.3-0.3-0.3h-5c-0.1,0-0.3,0.1-0.3,0.3v29.9c0,0.1,0.1,0.3,0.3,0.3h5c0.1,0,0.3-0.1,0.3-0.3v-22.1
			c1.2-1.4,2.4-2.5,3.6-3.2c1.3-0.7,2.9-1.1,4.7-1.1c0.9,0,1.7,0.1,2.5,0.4c0.8,0.3,1.5,0.7,2,1.3c0.6,0.6,1.1,1.3,1.4,2.1
			c0.3,0.9,0.5,1.9,0.5,3v19.6c0,0.1,0.1,0.3,0.3,0.3h5c0.1,0,0.3-0.1,0.3-0.3v-19.6c0-3.7-1-6.6-2.9-8.5
			C376.3,98.7,373.8,97.7,370.7,97.7z"/>
		<path class="st2" d="M394.3,98.5h-5c-0.1,0-0.1,0-0.2,0.1c0,0-0.1,0.1-0.1,0.2l0.1,30c0,0.1,0.1,0.3,0.3,0.3h4.9
			c0.1,0,0.3-0.1,0.3-0.3l0.1-30c0-0.1,0-0.1-0.1-0.2C394.4,98.6,394.4,98.5,394.3,98.5z"/>
		<path class="st2" d="M391.8,86.7c-1,0-1.8,0.3-2.5,1c-0.7,0.7-1,1.5-1,2.5c0,1,0.3,1.8,1,2.5c0.7,0.7,1.6,1,2.6,1
			c1,0,1.9-0.3,2.5-1c0.7-0.7,1-1.5,1-2.5s-0.3-1.8-1-2.5C393.6,87.1,392.8,86.7,391.8,86.7z"/>
		<path class="st2" d="M417.7,97.7c-1.3,0-2.5,0.1-3.6,0.4c-1,0.3-2,0.6-2.8,1.1c-0.8,0.4-1.6,0.9-2.2,1.5c-0.4,0.4-0.8,0.8-1.2,1.1
			v-3c0-0.1-0.1-0.3-0.3-0.3h-5c-0.1,0-0.3,0.1-0.3,0.3v29.9c0,0.1,0.1,0.3,0.3,0.3h5c0.1,0,0.3-0.1,0.3-0.3v-22.1
			c1.2-1.4,2.4-2.5,3.6-3.2c1.3-0.7,2.9-1.1,4.7-1.1c0.9,0,1.7,0.1,2.5,0.4c0.8,0.3,1.5,0.7,2,1.3c0.6,0.6,1.1,1.3,1.4,2.1
			c0.3,0.9,0.5,1.9,0.5,3v19.6c0,0.1,0.1,0.3,0.3,0.3h5c0.1,0,0.3-0.1,0.3-0.3v-19.6c0-3.7-1-6.6-2.9-8.5
			C423.3,98.7,420.8,97.7,417.7,97.7z"/>
		<path class="st2" d="M272.2,66.9c0,0-0.1,0-0.2,0c-2.1,0-4.1-0.4-5.9-1.2L267,65c1.8-2,3.1-4.3,4.1-6.8s1.4-5.3,1.4-8.2
			c0-3-0.5-5.9-1.6-8.6c-1.1-2.7-2.6-5.1-4.4-7.1c-1.9-2-4.1-3.6-6.7-4.8c-2.6-1.2-5.4-1.8-8.5-1.8c-3.1,0-6,0.6-8.6,1.8
			c-2.6,1.2-4.8,2.8-6.7,4.8c-1.9,2-3.4,4.4-4.4,7.1c-1,2.7-1.6,5.6-1.6,8.6c0,3,0.5,5.9,1.6,8.6c1,2.7,2.5,5.1,4.4,7.1
			c1.9,2,4.1,3.6,6.7,4.7c2.6,1.1,5.5,1.7,8.6,1.7c2.3,0,4.5-0.3,6.6-1c1.2-0.4,2.4-0.9,3.7-1.7c0.7,0.4,1.3,0.7,2,1
			c2.6,1.1,5.5,1.7,8.6,1.7l0.2,0c0.1,0,0.3-0.1,0.3-0.3v-4.7c0-0.1,0-0.1-0.1-0.2C272.3,66.9,272.3,66.9,272.2,66.9z M256.8,65.6
			c0,0,0.1,0.1,0.1,0.1c-0.4,0.2-0.8,0.3-1.2,0.5c-1.4,0.4-2.9,0.6-4.5,0.6c-2.3,0-4.4-0.4-6.2-1.3c-1.8-0.9-3.4-2.1-4.8-3.6
			c-1.3-1.5-2.4-3.3-3.1-5.4c-0.7-2.1-1.1-4.3-1.1-6.7c0-2.4,0.4-4.6,1.1-6.7c0.7-2.1,1.8-3.9,3.1-5.4c1.3-1.5,2.9-2.7,4.8-3.6
			c1.8-0.9,3.9-1.3,6.2-1.3c2.2,0,4.3,0.4,6.1,1.3c1.8,0.9,3.5,2.1,4.8,3.6c1.3,1.5,2.4,3.3,3.1,5.4c0.7,2.1,1.1,4.3,1.1,6.7
			c0,2-0.3,4-0.9,6c-0.6,1.9-1.4,3.6-2.5,5.1l-1.4,1.4c-0.1-0.1-0.3-0.3-0.4-0.4c-0.7-0.8-1.3-1.6-1.8-2.6c0-0.1-0.1-0.1-0.2-0.1h-6
			c-0.1,0-0.2,0-0.2,0.1c0,0.1-0.1,0.2,0,0.2C253.8,61.9,255.2,63.9,256.8,65.6z"/>
		<path class="st2" d="M463.6,98.6h-5c-0.1,0-0.3,0.1-0.3,0.3v3.2c-0.7-1.2-1.8-2.1-3.3-2.9c-1.8-0.9-3.9-1.4-6.2-1.4
			c-2,0-3.8,0.4-5.5,1.1c-1.7,0.8-3.2,1.8-4.5,3.3c-1.3,1.4-2.3,3.1-3.1,5.1c-0.7,2-1.1,4.2-1.1,6.6c0,2.4,0.4,4.6,1.1,6.6
			c0.7,2,1.8,3.7,3.1,5.1c1.3,1.4,2.8,2.5,4.5,3.3c1.7,0.8,3.6,1.1,5.5,1.1c2.3,0,4.4-0.5,6.2-1.4c1.5-0.8,2.5-1.7,3.3-2.9v3.1
			c0,1.6-0.2,3.9-0.8,5c-0.5,1.1-1.2,2-2,2.6c-0.8,0.6-1.8,1.1-2.9,1.4c-2.7,0.6-5.5,0.5-8.1-0.5c-1.5-0.6-3-1.7-4.4-3.3
			c0-0.1-0.1-0.1-0.2-0.1c-0.1,0-0.1,0-0.2,0.1l-3.3,3.2c0,0-0.1,0.1-0.1,0.2c0,0.1,0,0.1,0.1,0.2c1.1,1.1,2.3,2,3.4,2.7
			c1.1,0.7,2.2,1.2,3.3,1.6c1.1,0.4,2.2,0.6,3.2,0.7c1,0.1,2,0.2,3,0.2c1.9,0,3.7-0.2,5.4-0.7c1.7-0.5,3.3-1.3,4.7-2.3
			c1.4-1.1,2.5-2.4,3.3-4.1c0.9-1.9,1.2-4.9,1.2-6.9V98.9C463.9,98.7,463.7,98.6,463.6,98.6z M457.8,113.8c0,1.8-0.3,3.4-0.8,4.8v0
			c-0.5,1.3-1.1,2.4-2,3.3c-1.1,1.2-2.5,2.1-4,2.4c-2.2,0.5-4.5,0.2-6.3-0.8c-1.8-1.1-3.2-2.8-4-4.9c-0.5-1.4-0.8-3-0.8-4.8
			c0-1.8,0.3-3.4,0.8-4.8c0.5-1.3,1.1-2.4,2-3.3c0.4-0.4,0.9-0.8,1.4-1.2c1-0.7,1.9-1.1,2.9-1.3c0.6-0.1,1.2-0.2,1.8-0.2
			c0.6,0,1.2,0.1,1.8,0.2c1.7,0.3,3.1,1.2,4.3,2.5c0.8,0.9,1.5,2,2,3.3C457.5,110.4,457.8,112,457.8,113.8z"/>
	</g>
</g>
</svg>
